<svg width="21" height="21" viewBox="0 0 21 21" fill="none" xmlns="http://www.w3.org/2000/svg">
<path d="M7.16699 7.16675V4.83341C7.16699 3.89999 7.16699 3.43328 7.34865 3.07676C7.50844 2.76316 7.7634 2.50819 8.07701 2.3484C8.43353 2.16675 8.90024 2.16675 9.83366 2.16675H16.167C17.1004 2.16675 17.5671 2.16675 17.9236 2.3484C18.2372 2.50819 18.4922 2.76316 18.652 3.07676C18.8337 3.43328 18.8337 3.89999 18.8337 4.83341V11.1667C18.8337 12.1002 18.8337 12.5669 18.652 12.9234C18.4922 13.237 18.2372 13.492 17.9236 13.6518C17.5671 13.8334 17.1004 13.8334 16.167 13.8334H13.8337M4.83366 18.8334H11.167C12.1004 18.8334 12.5671 18.8334 12.9236 18.6518C13.2372 18.492 13.4922 18.237 13.652 17.9234C13.8337 17.5669 13.8337 17.1002 13.8337 16.1667V9.83341C13.8337 8.89999 13.8337 8.43328 13.652 8.07676C13.4922 7.76316 13.2372 7.50819 12.9236 7.3484C12.5671 7.16675 12.1004 7.16675 11.167 7.16675H4.83366C3.90024 7.16675 3.43353 7.16675 3.07701 7.3484C2.7634 7.50819 2.50844 7.76316 2.34865 8.07676C2.16699 8.43328 2.16699 8.89999 2.16699 9.83341V16.1667C2.16699 17.1002 2.16699 17.5669 2.34865 17.9234C2.50844 18.237 2.7634 18.492 3.07701 18.6518C3.43353 18.8334 3.90024 18.8334 4.83366 18.8334Z" stroke="#E4E7EC" stroke-width="1.66667" stroke-linecap="round" stroke-linejoin="round"/>
</svg>
