<svg width="18" height="18" viewBox="0 0 18 18" fill="none" xmlns="http://www.w3.org/2000/svg">
<path d="M8.75005 0C6.4294 0 4.20375 0.92188 2.5628 2.56282C0.921858 4.20377 0 6.42934 0 8.74999C0 11.0706 0.921858 13.2962 2.5628 14.9372C4.20375 16.5781 6.4294 17.5 8.75005 17.5C11.0707 17.5 13.2963 16.5781 14.9372 14.9372C16.5781 13.2962 17.5 11.0706 17.5 8.74999C17.5 6.42934 16.5781 4.20377 14.9372 2.56282C13.2963 0.92188 11.0707 0 8.75005 0Z" fill="#BC5E00"/>
<path d="M9.00399 6.17632C9.7747 6.82201 11.9637 8.84371 10.7573 10.0501C10.1257 10.6817 9.43659 10.4282 8.85798 9.94068C8.93577 10.3805 9.16711 10.7784 9.51087 11.0636C9.54183 11.0905 9.56388 11.1262 9.57397 11.1659C9.58405 11.2056 9.58166 11.2475 9.56727 11.2858C9.55287 11.3242 9.5271 11.3573 9.49338 11.3806C9.45965 11.4039 9.41963 11.4163 9.37864 11.4162H8.12078C8.07979 11.4163 8.03977 11.4039 8.00604 11.3806C7.97231 11.3573 7.94655 11.3242 7.93215 11.2858C7.91776 11.2475 7.91546 11.2056 7.92554 11.1659C7.93563 11.1262 7.95759 11.0905 7.98854 11.0636C8.33229 10.7784 8.56362 10.3805 8.64144 9.94068C8.06435 10.4282 7.37484 10.6817 6.74325 10.0501C5.53686 8.84447 7.72593 6.82201 8.49664 6.17632C8.56763 6.11651 8.65749 6.08372 8.75031 6.08372C8.84314 6.08372 8.93299 6.11651 9.00399 6.17632Z" fill="#FFCA00"/>
<path fill-rule="evenodd" clip-rule="evenodd" d="M2.59779 2.52803C-0.838502 5.9258 -0.869734 11.4659 2.52804 14.9022C5.9258 18.3385 11.4659 18.3697 14.9022 14.9719C18.3385 11.5742 18.3697 6.03408 14.972 2.59779C11.5742 -0.838502 6.03409 -0.869733 2.59779 2.52803ZM3.48584 12.5334L2.18809 13.4652C0.908759 11.6894 0.439227 9.51291 0.776632 7.44337L2.35239 7.70073C2.0778 9.38335 2.47684 11.1309 3.48584 12.5334ZM4.96853 3.48443L4.03676 2.18669C5.81225 0.908364 7.98801 0.439311 10.0569 0.776673L9.79912 2.35489C8.11757 2.07974 6.37101 2.47744 4.96853 3.48443ZM14.0115 4.96894L15.3121 4.03511C16.5907 5.81001 17.0603 7.9852 16.7238 10.0538L15.1432 9.79562C15.4166 8.11512 15.0183 6.37015 14.0115 4.96894ZM12.533 14.0101L13.4668 15.3107C11.6916 16.5903 9.51573 17.0604 7.44646 16.7238L7.70422 15.1456C9.38581 15.4185 11.1317 15.0189 12.533 14.0101ZM5.31937 13.4386C2.72968 11.5453 2.16517 7.9111 4.0585 5.32142C5.95182 2.73173 9.58602 2.16722 12.1757 4.06055C14.7654 5.95387 15.3299 9.58807 13.4366 12.1778C11.5433 14.7674 7.90905 15.3319 5.31937 13.4386Z" fill="#FFCA00"/>
</svg>
