<svg width="18" height="18" viewBox="0 0 18 18" fill="none" xmlns="http://www.w3.org/2000/svg">
<path d="M8.75005 0C6.4294 0 4.20375 0.92188 2.5628 2.56282C0.921857 4.20377 0 6.42934 0 8.74999C0 11.0706 0.921857 13.2962 2.5628 14.9372C4.20375 16.5781 6.4294 17.5 8.75005 17.5C11.0707 17.5 13.2963 16.5781 14.9372 14.9372C16.5781 13.2962 17.5 11.0706 17.5 8.74999C17.5 6.42934 16.5781 4.20377 14.9372 2.56282C13.2963 0.92188 11.0707 0 8.75005 0Z" fill="white"/>
<path fill-rule="evenodd" clip-rule="evenodd" d="M2.59779 2.52803C-0.838502 5.9258 -0.869735 11.4659 2.52803 14.9022C5.9258 18.3385 11.4659 18.3697 14.9022 14.9719C18.3385 11.5742 18.3697 6.03408 14.972 2.59779C11.5742 -0.838501 6.03409 -0.869733 2.59779 2.52803ZM3.48584 12.5334L2.18809 13.4652C0.908759 11.6894 0.439227 9.51291 0.776632 7.44337L2.35239 7.70073C2.0778 9.38335 2.47684 11.1309 3.48584 12.5334ZM4.96853 3.48444L4.03676 2.18669C5.81225 0.908364 7.98801 0.439311 10.0569 0.776673L9.79912 2.35489C8.11757 2.07974 6.37101 2.47744 4.96853 3.48444ZM14.0115 4.96894L15.3121 4.03511C16.5907 5.81001 17.0603 7.9852 16.7238 10.0538L15.1431 9.79562C15.4166 8.11512 15.0183 6.37015 14.0115 4.96894ZM12.533 14.0101L13.4668 15.3107C11.6916 16.5903 9.51573 17.0604 7.44646 16.7238L7.70422 15.1456C9.38581 15.4185 11.1317 15.0189 12.533 14.0101ZM5.31936 13.4386C2.72968 11.5453 2.16517 7.9111 4.05849 5.32142C5.95182 2.73173 9.58602 2.16722 12.1757 4.06055C14.7654 5.95387 15.3299 9.58807 13.4366 12.1778C11.5433 14.7674 7.90905 15.3319 5.31936 13.4386Z" fill="#343F54"/>
<path fill-rule="evenodd" clip-rule="evenodd" d="M9.16474 5.80005H6.53977V8.38466H5.7998V9.40564H6.53977V12.2H9.18257C10.1058 12.2 10.8678 11.9203 11.398 11.3639C11.9268 10.8087 12.1998 10.0044 12.1998 9.00424C12.1998 8.00319 11.9219 7.19695 11.3887 6.64005C10.8544 6.08205 10.0884 5.80005 9.16474 5.80005ZM9.64111 9.40564V8.38466H7.92046V6.99725H9.12016C9.80633 6.99725 10.205 7.23632 10.4422 7.58007C10.689 7.93772 10.7835 8.44075 10.7835 9.00424C10.7835 9.56777 10.6889 10.0684 10.4424 10.4238C10.2055 10.7654 9.80696 11.0028 9.12016 11.0028H7.92046V9.40564H9.64111Z" fill="#343F54"/>
</svg>
