<svg width="15" height="14" viewBox="0 0 15 14" fill="none" xmlns="http://www.w3.org/2000/svg">
<g clip-path="url(#clip0_16469_458)">
<path d="M7.5 14C11.366 14 14.5 10.866 14.5 7C14.5 3.13401 11.366 0 7.5 0C3.63401 0 0.5 3.13401 0.5 7C0.5 10.866 3.63401 14 7.5 14Z" fill="#7A57DD"/>
<path d="M7.49902 2.33325V5.7827L10.4145 7.08547L7.49902 2.33325Z" fill="white" fill-opacity="0.602"/>
<path d="M7.4989 2.33325L4.58301 7.08547L7.4989 5.7827V2.33325Z" fill="white"/>
<path d="M7.49902 9.32086V11.6647L10.4165 7.62842L7.49902 9.32086Z" fill="white" fill-opacity="0.602"/>
<path d="M7.4989 11.6647V9.32047L4.58301 7.62842L7.4989 11.6647Z" fill="white"/>
<path d="M7.49902 8.77828L10.4145 7.08545L7.49902 5.78345V8.77828Z" fill="white" fill-opacity="0.2"/>
<path d="M4.58301 7.08545L7.4989 8.77828V5.78345L4.58301 7.08545Z" fill="white" fill-opacity="0.602"/>
</g>
<defs>
<clipPath id="clip0_16469_458">
<rect width="14" height="14" fill="white" transform="translate(0.5)"/>
</clipPath>
</defs>
</svg>
