<svg width="40" height="40" viewBox="0 0 40 40" fill="none" xmlns="http://www.w3.org/2000/svg">
<path d="M20 40C31.0457 40 40 31.0457 40 20C40 8.95431 31.0457 0 20 0C8.95431 0 0 8.95431 0 20C0 31.0457 8.95431 40 20 40Z" fill="#1ACFFF"/>
<path d="M20.3539 15.9642L28.7078 10.5836C29.2388 10.2651 29.6282 9.73409 29.7698 9.13232L30.3008 7.32701L31.8583 9.5571C32.1769 10.0173 32.3539 10.5836 32.3539 11.15V16.3536C32.3539 16.6721 32.4954 16.9553 32.7078 17.2031L34.7255 19.2208C35.0795 19.5748 35.0795 20.1766 34.7255 20.5659L33.3804 21.9111C33.1326 22.1589 33.0264 22.5836 33.168 22.9022L33.6636 24.1766C33.8052 24.4952 33.7344 24.8491 33.522 25.1323L25.7344 34.3359C25.2388 34.9376 24.3185 34.973 23.7875 34.4067L23.0795 33.6987C22.5485 33.1677 21.699 33.1677 21.2034 33.6987C20.5662 34.3359 19.5397 34.3359 18.9379 33.6987C18.4069 33.1677 17.5574 33.1677 17.0618 33.6987L16.3539 34.4067C15.7875 34.973 14.9025 34.9376 14.407 34.3359L6.61934 25.1323C6.40695 24.8845 6.33615 24.4952 6.47775 24.1766L6.97332 22.9022C7.11492 22.5483 7.00872 22.1589 6.76093 21.9111L5.27421 20.5306C4.92023 20.1766 4.92023 19.5748 5.27421 19.1854L7.29191 17.1677C7.5043 16.9553 7.64589 16.6367 7.64589 16.3182V11.15C7.64589 10.5836 7.82288 10.0527 8.14147 9.5571L9.66359 7.32701L10.1946 9.13232C10.3716 9.73409 10.7609 10.2297 11.2565 10.5836L19.6105 15.9642C19.8583 16.1058 20.1415 16.1058 20.3539 15.9642Z" fill="white"/>
<path d="M15.1504 20.7429L11.3982 18.3713C11.0089 18.1235 10.4779 18.1589 10.1239 18.5128L8.28319 20.3536C8.177 20.4598 8.177 20.6013 8.28319 20.6721L10.0885 22.4775C11.1151 23.504 12.8142 23.5394 13.8761 22.5128L15.1858 21.2385C15.3274 21.0969 15.292 20.8491 15.1504 20.7429Z" fill="#1ACFFF"/>
<path d="M24.8494 20.7429L28.6017 18.3713C28.991 18.1235 29.522 18.1589 29.876 18.5128L31.7167 20.3536C31.8229 20.4598 31.8229 20.6013 31.7167 20.6721L29.9114 22.4775C28.8848 23.504 27.1857 23.5394 26.1238 22.5128L24.7787 21.2385C24.6371 21.0969 24.6725 20.8491 24.8494 20.7429Z" fill="#1ACFFF"/>
<path d="M20.2122 24.6372L21.5927 23.115C21.7697 22.938 21.6281 22.6549 21.3803 22.6549H18.6192C18.3714 22.6549 18.2299 22.938 18.4068 23.115L19.7874 24.6372C19.8936 24.7433 20.0706 24.7433 20.2122 24.6372Z" fill="#1ACFFF"/>
<path d="M13.3455 26.5485C13.1331 26.5485 12.9915 26.7609 13.0623 26.9379C13.9473 29.2742 16.1773 30.7963 18.6906 30.7963H21.3101C23.8234 30.7963 26.0534 29.2388 26.903 26.9379C26.9738 26.7609 26.8322 26.5485 26.6198 26.5485H13.3455Z" fill="#1ACFFF"/>
</svg>
