<svg viewBox="0 0 361 766" fill="none" xmlns="http://www.w3.org/2000/svg">
  <path
    d="M2.5 585.437L2.50002 180.563C2.50003 82.3812 82.3533 2.49999 180.5 2.49999C278.647 2.5 358.5 82.3801 358.5 180.563L358.5 585.437C358.5 683.62 278.647 763.5 180.5 763.5C82.3533 763.5 2.5 683.62 2.5 585.437Z"
    fill="#1ACFFF" fill-opacity="0.9" stroke="#033344" stroke-width="5" />
  <path
    d="M46 581.661L46 185.339C46 148.384 60.1706 112.942 85.3942 86.8114C110.618 60.6803 144.828 46 180.5 46C216.172 46 250.382 60.6803 275.606 86.8114C300.83 112.942 315 148.384 315 185.339L315 581.661C315 618.616 300.83 654.058 275.606 680.189C250.382 706.32 216.172 721 180.5 721C144.828 721 110.618 706.32 85.3942 680.189C60.1706 654.058 46 618.616 46 581.661Z"
    fill="#1ACFFF" stroke="#A3ECFF" stroke-width="0.767139" stroke-miterlimit="10" />
</svg>