<svg viewBox="0 0 19 22" fill="none" xmlns="http://www.w3.org/2000/svg">
  <path
    d="M14.0345 7.85264C13.9083 7.85264 13.7897 7.88119 13.665 7.89062C14.1622 7.12461 14.4466 6.23541 14.4881 5.31757C14.5296 4.39974 14.3265 3.48761 13.9005 2.67816C13.4745 1.86871 12.8415 1.19204 12.0688 0.720468C11.296 0.248897 10.4125 0 9.5122 0C8.61186 0 7.72835 0.248897 6.95564 0.720468C6.18293 1.19204 5.5499 1.86871 5.12389 2.67816C4.69788 3.48761 4.49481 4.39974 4.53628 5.31757C4.57775 6.23541 4.86221 7.12461 5.3594 7.89062C5.23467 7.88119 5.11612 7.85264 4.98985 7.85264C4.13356 7.85112 3.29135 8.07504 2.5445 8.50252C1.79766 8.92999 1.17141 9.54687 0.726201 10.2933C0.280993 11.0398 0.0318634 11.8906 0.00285886 12.7639C-0.0261457 13.6373 0.165956 14.5035 0.560618 15.2791C0.955281 16.0546 1.53918 16.713 2.25595 17.1911C2.97272 17.6692 3.79815 17.951 4.65258 18.0086C5.507 18.0663 6.36157 17.8979 7.13378 17.5203C7.90599 17.1426 8.56977 16.5683 9.06104 15.8526C9.05825 15.9436 9.05001 16.0346 9.0364 16.1246C8.68226 17.8622 7.75909 19.4247 6.41878 20.5556C6.29564 20.6674 6.20884 20.8149 6.16998 20.9783C6.13111 21.1418 6.14204 21.3136 6.20127 21.4706C6.26051 21.6275 6.36525 21.7623 6.50151 21.8569C6.63777 21.9515 6.79907 22.0014 6.96386 22H12.0451C12.2096 22.0005 12.3703 21.9501 12.506 21.8553C12.6417 21.7606 12.746 21.626 12.8051 21.4694C12.8642 21.3128 12.8753 21.1415 12.8369 20.9783C12.7986 20.8152 12.7125 20.6677 12.5902 20.5556C11.2494 19.4251 10.3262 17.8624 9.97259 16.1246C9.95822 16.0347 9.94999 15.9437 9.94796 15.8526C10.4395 16.5669 11.103 17.1399 11.8746 17.5164C12.6462 17.8929 13.4999 18.0602 14.3533 18.0021C15.2066 17.944 16.0309 17.6623 16.7467 17.1846C17.4625 16.7068 18.0455 16.049 18.4397 15.2745C18.8339 14.4999 19.0259 13.6347 18.9972 12.7624C18.9685 11.8901 18.72 11.0399 18.2758 10.2941C17.8315 9.54826 17.2065 8.93207 16.4609 8.50444C15.7154 8.0768 14.8744 7.85216 14.0191 7.85264H14.0345Z"
    fill="#001316" />
</svg>