<svg viewBox="0 0 15 22" fill="none" xmlns="http://www.w3.org/2000/svg">
  <path
    d="M6.64148 0.469721L0.168825 10.4325C0.0586948 10.6014 0 10.7992 0 11.0013C0 11.2035 0.0586948 11.4013 0.168825 11.5701L6.64148 21.533C6.73502 21.6765 6.8624 21.7942 7.01218 21.8757C7.16197 21.9572 7.32947 22 7.49963 22C7.66979 22 7.8373 21.9572 7.98708 21.8757C8.13687 21.7942 8.26425 21.6765 8.35779 21.533L14.832 11.5686C14.9416 11.3999 15 11.2024 15 11.0006C15 10.7988 14.9416 10.6013 14.832 10.4325L8.35934 0.469721C8.26611 0.325538 8.13875 0.207059 7.98877 0.12508C7.8388 0.0431014 7.67095 0 7.50041 0C7.32986 0 7.16202 0.0431014 7.01204 0.12508C6.86207 0.207059 6.7347 0.325538 6.64148 0.469721Z"
    fill="#FF0000" />
</svg>