<svg viewBox="0 0 19 18" fill="none" xmlns="http://www.w3.org/2000/svg">
  <path
    d="M8.47903 17.6197C8.7647 17.8653 9.12598 18 9.49923 18C9.87249 18 10.2338 17.8653 10.5194 17.6197C13.6191 14.9557 22.4216 6.38408 17.5712 1.4244C17.0005 0.899473 16.3272 0.504286 15.5959 0.265182C14.8647 0.0260774 14.0921 -0.0517137 13.3293 0.0371646C12.5665 0.126043 11.8308 0.37971 11.1709 0.780898C10.5111 1.18209 9.94208 1.72202 9.50154 2.36477C9.06116 1.72157 8.49213 1.18124 7.83214 0.77975C7.17215 0.378257 6.43625 0.124527 5.67317 0.0356343C4.91008 -0.0532584 4.13723 0.0246314 3.40579 0.264034C2.67434 0.503436 2.001 0.898967 1.43034 1.4244C-3.42311 6.38408 5.37933 14.9651 8.47903 17.6197Z"
    fill="#FF0000" />
</svg>