<svg viewBox="0 0 19 22" fill="none" xmlns="http://www.w3.org/2000/svg">
  <path
    d="M17.5701 16.3641C22.4228 11.387 13.6201 3.04666 10.5194 0.38123C10.2336 0.135094 9.87243 0 9.49931 0C9.1262 0 8.76503 0.135094 8.47927 0.38123C5.38003 3.04666 -3.42107 11.3886 1.42858 16.3641C3.96836 18.9698 6.73958 17.9242 9.06171 15.913C8.74776 17.7274 7.8169 19.369 6.43457 20.5457C6.31009 20.6566 6.22164 20.8037 6.18109 20.9676C6.14054 21.1315 6.14984 21.3042 6.20773 21.4625C6.26562 21.6208 6.36934 21.7572 6.50495 21.8533C6.64057 21.9494 6.80161 22.0005 6.96644 22H12.0245C12.1894 22.0005 12.3504 21.9494 12.486 21.8533C12.6216 21.7572 12.7253 21.6208 12.7832 21.4625C12.8411 21.3042 12.8504 21.1315 12.8099 20.9676C12.7693 20.8037 12.6809 20.6566 12.5564 20.5457C11.174 19.3693 10.2436 17.7275 9.93079 15.913C12.259 17.9227 15.0303 18.9682 17.5701 16.3641Z"
    fill="#001316" />
</svg>